<svg width="1920" height="1090" viewBox="0 0 1920 1090" fill="none" xmlns="http://www.w3.org/2000/svg">
<g clip-path="url(#clip0_35_4)">
<path d="M1920 0H0V1090H1920V0Z" fill="#001220"/>
<path d="M1920 1038.29C1809.92 951.68 1700.05 865.067 1582.08 816C1464.11 766.933 1338.24 755.2 1226.03 693.973C1114.03 632.533 1015.68 521.387 960.64 397.44C905.6 273.493 893.653 136.747 881.707 0H1920V1038.29Z" fill="#457B9D"/>
<path d="M0 241.707C148.693 244.48 297.6 247.253 397.44 320.64C497.28 394.027 548.267 538.027 644.053 635.947C740.053 733.653 880.64 785.28 954.027 884.907C1027.2 984.533 1032.75 1132.16 1038.29 1280H0V241.707Z" fill="#457B9D"/>
</g>
<defs>
<clipPath id="clip0_35_4">
<rect width="1920" height="1090" fill="white"/>
</clipPath>
</defs>
</svg>
