<svg xmlns="http://www.w3.org/2000/svg" enable-background="new 0 0 100 100" viewBox="0 0 100 100"><path d="M93,27H70.4L60,22.67v-1.92c3.45-0.89,6-4.03,6-7.75c0-4.41-3.59-8-8-8s-8,3.59-8,8c0,1.1,0.9,2,2,2s2-0.9,2-2
	c0-2.21,1.79-4,4-4s4,1.79,4,4c0,2.21-1.79,4-4,4c-1.1,0-2,0.9-2,2v3.67L45.6,27H23c-1.1,0-2,0.9-2,2v24c0,1.1,0.9,2,2,2h12v6H12
	c-3.86,0-7,3.14-7,7c0,1.96,0.81,3.73,2.11,5C5.81,74.27,5,76.04,5,78c0,1.96,0.81,3.73,2.11,5C5.81,84.27,5,86.04,5,88
	c0,3.86,3.14,7,7,7h67c1.1,0,2-0.9,2-2V55h12c1.1,0,2-0.9,2-2V29C95,27.9,94.1,27,93,27z M58,26.17l9.91,4.12
	C67.27,35.2,63.07,39,58,39s-9.27-3.8-9.91-8.71L58,26.17z M60,91H12c-1.65,0-3-1.35-3-3c0-1.65,1.35-3,3-3h48c1.65,0,3,1.35,3,3
	C63,89.65,61.65,91,60,91z M60,81H12c-1.65,0-3-1.35-3-3c0-1.65,1.35-3,3-3h48c1.65,0,3,1.35,3,3C63,79.65,61.65,81,60,81z M60,71
	H12c-1.65,0-3-1.35-3-3c0-1.65,1.35-3,3-3h48c1.65,0,3,1.35,3,3C63,69.65,61.65,71,60,71z M91,51H81v-4c0-1.1-0.9-2-2-2s-2,0.9-2,2
	v44H66.31c0.44-0.91,0.69-1.93,0.69-3c0-1.96-0.81-3.73-2.11-5c1.3-1.27,2.11-3.04,2.11-5c0-1.96-0.81-3.73-2.11-5
	c1.3-1.27,2.11-3.04,2.11-5c0-3.86-3.14-7-7-7H39V47c0-1.1-0.9-2-2-2s-2,0.9-2,2v4H25V31h19.16c0.98,6.77,6.8,12,13.84,12
	s12.86-5.23,13.84-12H91V51z"/></svg>